<svg xmlns="http://www.w3.org/2000/svg" xmlns:xlink="http://www.w3.org/1999/xlink" viewBox="0,0,256,256" width="96px" height="96px"><g fill="#ffa500" fill-rule="nonzero" stroke="none" stroke-width="1" stroke-linecap="butt" stroke-linejoin="miter" stroke-miterlimit="10" stroke-dasharray="" stroke-dashoffset="0" font-family="none" font-weight="none" font-size="none" text-anchor="none" style="mix-blend-mode: normal"><g transform="scale(8,8)"><path d="M17.11914,3.00391c-1.497,0.528 -1.87337,1.33345 -1.98437,2.06445c-0.386,-0.274 -0.34024,-1.17139 -0.36524,-1.40039c-0.381,0.046 -1.48069,1.11117 -1.42969,2.45117c-0.102,0.025 -0.19978,0.05594 -0.30078,0.08594c-0.33,-0.447 -1.27286,-1.59814 -2.50586,-1.99414c-0.402,-0.114 -0.81384,-0.18164 -1.21484,-0.18164c-1.472,0 -2.33961,0.87867 -2.34961,0.88867l-0.41016,0.47656l0.62305,0.12305c0.01,0 1.04566,0.21758 1.47266,0.89258c0.071,0.112 0.09033,0.33427 0.11133,0.57227c0.01,0.142 -0.01892,0.28011 -0.04492,0.41211c-0.02,0.096 -0.04187,0.19783 -0.04687,0.29883c-0.391,0.017 -0.72123,0.09347 -0.99023,0.23047c-0.365,0.188 -0.61384,0.48533 -0.71484,0.86133c-0.254,0.924 0.56861,1.95523 0.59961,1.99023c0.096,0.173 0.13706,1.4112 -0.08594,1.9082c-0.03,0.071 -0.11275,0.13666 -0.21875,0.22266c-0.036,0.025 -0.07033,0.05594 -0.11133,0.08594c-0.31,0.233 -0.7832,0.59316 -0.7832,1.41016c0,1.122 1.13778,1.73175 2.05078,2.21875c0.152,0.081 0.29487,0.15642 0.42188,0.23242c0.137,0.081 0.61914,0.58017 0.61914,1.32617c0,0.35 -0.03145,2.01402 -0.18945,3.16602c-0.589,-0.502 -1.12705,-1.31366 -1.24805,-2.22266c0,0 -1.48192,1.14775 -1.04492,3.59375c0.264,1.497 1.17677,2.33939 2.38477,2.77539c0.447,0.969 1.49202,2.31958 3.41602,2.51758c0.731,0.599 1.74652,0.98828 3.22852,0.98828h0.00977c1.477,0 2.49252,-0.38928 3.22852,-0.98828c1.923,-0.198 2.96902,-1.54858 3.41602,-2.51758c1.208,-0.442 2.11577,-1.27839 2.38477,-2.77539c0.416,-2.455 -1.07031,-3.59766 -1.07031,-3.59766c-0.122,0.908 -0.66005,1.71575 -1.24805,2.21875c-0.157,-1.152 -0.18945,-2.81797 -0.18945,-3.16797c0,-0.746 0.48214,-1.24222 0.61914,-1.32422c0.127,-0.076 0.27487,-0.15338 0.42188,-0.23437c0.914,-0.487 2.05078,-1.0948 2.05078,-2.2168c0,-0.822 -0.4732,-1.17811 -0.7832,-1.41211c-0.041,-0.03 -0.07533,-0.05594 -0.11133,-0.08594c-0.107,-0.086 -0.18875,-0.15166 -0.21875,-0.22266c-0.223,-0.497 -0.18294,-1.7362 -0.08594,-1.9082c0.03,-0.03 0.84861,-1.06028 0.59961,-1.98828c-0.102,-0.376 -0.3508,-0.67528 -0.7168,-0.86328c-0.269,-0.137 -0.60423,-0.21352 -0.99023,-0.22852c-0.005,-0.102 -0.02392,-0.19783 -0.04492,-0.29883c-0.03,-0.132 -0.05687,-0.26816 -0.04687,-0.41016c0.02,-0.239 0.04228,-0.45822 0.11328,-0.57422c0.426,-0.675 1.4607,-0.89258 1.4707,-0.89258l0.625,-0.12109l-0.41211,-0.48242c-0.005,-0.01 -0.87761,-0.88867 -2.34961,-0.88867c-0.401,0 -0.81166,0.06722 -1.22266,0.19922c-1.228,0.396 -2.17781,1.54714 -2.50781,1.99414c-0.157,-0.051 -0.31933,-0.09572 -0.48633,-0.13672c-0.213,-0.802 0.45703,-1.95508 0.45703,-1.95508c0,0 -0.68898,-0.15152 -1.70898,0.77148c-0.132,-0.33 -0.4118,-1.03872 -0.0918,-1.88672zM9.32813,4.79297c0.31,0 0.60944,0.04572 0.89844,0.13672c0.903,0.294 1.60506,1.17691 1.91406,1.62891c-0.081,0.036 -0.16214,0.07033 -0.24414,0.11133c-0.127,0.061 -0.25033,0.1265 -0.36133,0.1875c-0.132,-0.274 -0.42078,-0.69472 -1.05078,-1.13672c-0.421,-0.294 -0.92294,-0.45117 -1.46094,-0.45117c-0.171,0.005 -0.33503,0.02492 -0.45703,0.04492c-0.167,-0.111 -0.33519,-0.20353 -0.49219,-0.26953c0.244,-0.101 0.69491,-0.25195 1.25391,-0.25195zM22.66602,4.79297c0.558,0 1.00991,0.15191 1.25391,0.25391c-0.157,0.071 -0.32519,0.16058 -0.49219,0.26758c-0.122,-0.02 -0.2838,-0.04102 -0.4668,-0.04102c-0.533,0 -1.04003,0.15813 -1.45703,0.45313c-0.624,0.442 -0.91378,0.85772 -1.05078,1.13672c-0.112,-0.066 -0.22737,-0.1265 -0.35937,-0.1875c-0.081,-0.041 -0.15823,-0.07728 -0.24023,-0.11328c0.31,-0.462 1.01106,-1.34381 1.91406,-1.63281c0.284,-0.091 0.58944,-0.13672 0.89844,-0.13672zM22.83398,5.85156c-0.041,0.051 -0.08119,0.10711 -0.11719,0.16211c-0.167,0.264 -0.19766,0.5903 -0.22266,0.9043c-0.025,0.325 -0.05566,0.63233 -0.22266,0.86133c-0.213,0.041 -0.41098,0.08767 -0.58398,0.13867c-0.117,-0.157 -0.2842,-0.35536 -0.5332,-0.56836c0.071,-0.244 0.27955,-0.81758 0.68555,-1.14258c0.284,-0.218 0.61814,-0.34047 0.99414,-0.35547zM9.16016,5.85742c0.376,0.015 0.71123,0.13247 0.99023,0.35547c0.406,0.32 0.61455,0.89372 0.68555,1.13672c-0.249,0.213 -0.4212,0.40636 -0.5332,0.56836c-0.173,-0.046 -0.36998,-0.09767 -0.58398,-0.13867c-0.167,-0.223 -0.1908,-0.53047 -0.2168,-0.85547c-0.025,-0.315 -0.05761,-0.6403 -0.22461,-0.9043c-0.036,-0.056 -0.07619,-0.11111 -0.11719,-0.16211zM15.99609,6.65039c1.416,0 2.68548,0.26973 3.77148,0.80273c0.721,0.35 0.9947,0.61862 1.0957,0.76563c-1.726,0.766 -2.68336,2.34437 -2.69336,2.35938l-0.17969,0.29492l0.28516,-0.19727c0,0 0.00953,-0.00563 0.01953,-0.01562c0.442,-0.345 1.97991,-1.51306 3.25391,-1.91406c0.355,-0.112 1.04492,-0.30469 1.66992,-0.30469c0.32,0 0.57262,0.05244 0.76563,0.14844c0.178,0.091 0.28884,0.22153 0.33984,0.39453c0.127,0.462 -0.30956,1.14856 -0.47656,1.35156c-0.025,0.03 -0.04641,0.06533 -0.06641,0.11133c-0.015,-0.233 -0.02563,-0.48147 -0.01562,-0.73047c-0.203,0.447 -0.32881,1.59864 -0.25781,2.18164c0.183,1.487 0.79688,2.24805 0.79688,2.24805c-0.041,-0.081 -0.09072,-0.39086 -0.13672,-0.75586c0.036,0.03 0.07533,0.05984 0.11133,0.08984l0.02539,0.02148c0.233,0.188 0.45117,0.35983 0.45117,0.92383c0,0.721 -0.7822,1.14087 -1.5332,1.54688c-0.147,0.076 -0.28878,0.15642 -0.42578,0.23242c-0.442,0.254 -0.91375,0.84833 -0.96875,1.73633c-0.046,0.741 0.04683,2.53352 0.17383,3.85352c-0.629,0.244 -1.35562,0.32375 -2.01562,0.34375c-0.102,-0.208 -0.1983,-0.43006 -0.2793,-0.66406c-0.036,-0.102 -0.99484,-2.5942 -1.33984,-3.1582c0.279,1.979 0.88836,3.73987 1.19336,4.54688c-0.178,-0.025 -0.36975,-0.03516 -0.59375,-0.03516h-5.93945c-0.223,0 -0.42075,0.01416 -0.59375,0.03516c0.305,-0.807 0.91936,-2.56788 1.19336,-4.54687c-0.345,0.568 -1.30384,3.0612 -1.33984,3.1582c-0.081,0.233 -0.1783,0.45606 -0.2793,0.66406c-0.66,-0.02 -1.38063,-0.10075 -2.01562,-0.34375c0.127,-1.32 0.21883,-3.10752 0.17383,-3.85352c-0.046,-0.884 -0.52384,-1.48333 -0.96484,-1.73633c-0.137,-0.081 -0.28378,-0.15642 -0.42578,-0.23242c-0.756,-0.406 -1.5332,-0.82587 -1.5332,-1.54687c0,-0.563 0.21913,-0.74083 0.45313,-0.92383l0.02539,-0.02148c0.036,-0.03 0.07033,-0.05984 0.11133,-0.08984c-0.046,0.365 -0.09572,0.67486 -0.13672,0.75586c0,0 0.61388,-0.76105 0.79688,-2.24805c0.071,-0.584 -0.05677,-1.74064 -0.25977,-2.18164c0.01,0.249 0.00133,0.49647 -0.01367,0.73047c-0.02,-0.041 -0.04141,-0.08033 -0.06641,-0.11133c-0.162,-0.203 -0.59856,-0.88956 -0.47656,-1.35156c0.046,-0.178 0.15684,-0.30353 0.33984,-0.39453c0.193,-0.096 0.44662,-0.14844 0.76563,-0.14844c0.624,0 1.31392,0.18769 1.66992,0.30469c1.274,0.406 2.81095,1.56906 3.25195,1.91406c0.01,0.01 0.02148,0.01563 0.02148,0.01563l0.2832,0.19727l-0.17773,-0.29492c-0.01,-0.015 -0.96822,-1.59337 -2.69922,-2.35937c0.102,-0.147 0.3757,-0.41062 1.0957,-0.76562c1.086,-0.533 2.35853,-0.80273 3.76953,-0.80273zM14.60938,11.63867c0.002,0 0.73881,0.89234 1.38281,0.90234h0.00976c0.645,-0.005 1.38086,-0.90234 1.38086,-0.90234c-0.502,0.305 -0.95472,0.40992 -1.38672,0.41992c-0.431,-0.01 -0.88372,-0.11592 -1.38672,-0.41992zM9.81445,11.70313c-0.24917,0.0057 -0.50777,0.03681 -0.77539,0.10156c0.21686,0.05073 0.44985,0.12359 0.68164,0.20898c-0.214,0.102 -0.33142,0.35942 -0.35742,0.60742c-0.056,0.508 0.26563,0.9707 0.26563,0.9707c0.036,-0.381 0.11017,-0.65175 0.20117,-0.84375c0.02,0.523 0.16239,1.19442 0.65039,1.73242c0.35,0.386 1.80811,1.18159 2.78711,0.30859c0.051,0.122 0.10734,0.26964 0.15234,0.43164c0.147,0.523 -0.13867,1.28516 -0.13867,1.28516c0,0 0.76608,-0.86939 0.70508,-1.65039c0.548,-0.025 1.08727,-0.42624 1.07227,-0.99024c0,0 -0.95974,0.52969 -1.80274,-0.44531c-0.4305,-0.497 -1.69719,-1.75669 -3.44141,-1.7168zM22.17773,11.71289c-1.74709,-0.04007 -3.00895,1.21892 -3.43945,1.7168c-0.848,0.974 -1.80273,0.44726 -1.80273,0.44726c-0.01,0.553 0.52817,0.95752 1.07617,0.97852c-0.061,0.787 0.70508,1.65039 0.70508,1.65039c0,0 -0.28372,-0.76216 -0.13672,-1.28516c0.046,-0.162 0.10234,-0.30564 0.15234,-0.43164c0.98,0.878 2.43625,0.07741 2.78125,-0.30859c0.487,-0.538 0.62244,-1.20942 0.64844,-1.73242c0.091,0.193 0.17312,0.46375 0.20313,0.84375c0,0 0.32662,-0.4637 0.26563,-0.9707c-0.03,-0.254 -0.14747,-0.50666 -0.35547,-0.59766h-0.00586c0.233,-0.091 0.46755,-0.16299 0.68555,-0.20899c-0.26837,-0.06475 -0.52776,-0.09584 -0.77734,-0.10156zM10.80078,12.53125c0.99,0.558 1.8983,1.30295 2.2793,1.87695c-0.289,0.167 -1.10169,0.52806 -1.92969,-0.08594c-0.523,-0.386 -0.49761,-1.32902 -0.34961,-1.79102zM21.19336,12.53125c0.152,0.462 0.17449,1.40588 -0.35352,1.79688c-0.827,0.614 -1.63483,0.25308 -1.92383,0.08008c0.38,-0.579 1.28834,-1.31895 2.27734,-1.87695zM7.83008,20.55078c0.553,1.746 2.39634,2.24674 3.77734,2.30273c-0.137,0.213 -0.26447,0.38581 -0.35547,0.50781l-0.07031,0.07227c-0.365,0.396 -0.43698,0.93828 -0.20899,1.61328c-1.152,-0.006 -2.34912,-0.49805 -2.95312,-1.49805c-0.614,-1.015 -0.44345,-2.74505 -0.18945,-2.99805zM24.16992,20.55469c0.253,0.255 0.42564,1.98414 -0.19336,2.99414c-0.609,1 -1.80722,1.48781 -2.94922,1.50781c0.228,-0.675 0.15602,-1.22424 -0.20898,-1.61523c-0.02,-0.025 -0.04531,-0.05117 -0.07031,-0.07617c-0.091,-0.122 -0.21847,-0.29381 -0.35547,-0.50781c1.38,-0.061 3.22434,-0.55673 3.77734,-2.30273zM12.98242,23.47852h6.0293c0.766,0 1.10605,0.19823 1.24805,0.36523c0.213,0.244 0.22692,0.63887 0.04492,1.17188c-0.334,0.954 -1.23259,3.28016 -4.30859,3.28516c-3.076,-0.005 -3.97359,-2.32516 -4.30859,-3.28516c-0.188,-0.533 -0.17212,-0.92387 0.04688,-1.17187c0.147,-0.167 0.48205,-0.36523 1.24805,-0.36523zM17.63281,24.25c-0.213,0 -0.36613,0.04572 -0.45312,0.13672c-0.112,0.117 -0.07492,0.26384 -0.04492,0.33984c0.051,0.132 0.27916,0.57347 0.66016,0.98047c0.137,0.147 0.33364,0.22852 0.55664,0.22852c0.223,0 0.44261,-0.08089 0.59961,-0.21289c0.117,-0.102 0.51831,-0.46792 0.69531,-0.91992c0.066,-0.167 0.05012,-0.30439 -0.04687,-0.40039c-0.065,-0.066 -0.20256,-0.14734 -0.47656,-0.15234zM12.88086,24.25586c-0.279,0 -0.41642,0.08048 -0.48242,0.14648c-0.096,0.102 -0.11092,0.23816 -0.04492,0.41016c0.178,0.462 0.57931,0.83831 0.69531,0.94531c0.157,0.137 0.37966,0.2168 0.59766,0.2168c0.223,0 0.42159,-0.08542 0.55859,-0.23242c0.381,-0.416 0.60416,-0.86886 0.66016,-1.00586c0.03,-0.076 0.06513,-0.22675 -0.04687,-0.34375c-0.09,-0.092 -0.23731,-0.13672 -0.44531,-0.13672zM10.33984,25.75781c0.305,0.056 0.61836,0.09509 0.94336,0.12109c0.178,0.406 0.37505,0.80687 0.62305,1.17188c-0.731,-0.299 -1.23641,-0.81097 -1.56641,-1.29297zM21.65625,25.75781c-0.33,0.482 -0.83736,0.99397 -1.56836,1.29297c0.249,-0.365 0.448,-0.76588 0.625,-1.17187c0.325,-0.025 0.63836,-0.06509 0.94336,-0.12109z"></path></g></g></svg>